#!OML:ASF H:\GeneralSubjects\Female5\Project 1\Capture day 1\Session 1\Female5.ASF
:FULLY-SPECIFIED
:DEGREES
1
root 44.1159 16.0654 3.50422 163.38 -83.7663 -153.576
lowerback 7.57003 0.879598 1.91088
upperback -8.56746 1.43053 1.46417
thorax -13.6298 0.495372 0.287506
lowerneck -20.3974 -4.54157 -1.00359
upperneck 30.7417 -5.53495 -4.15573
head 13.7425 -3.34787 -2.51272
rclavicle 5.93869e-015 8.94531e-015
rhumerus -48.3418 13.7359 -81.2839
rradius 35.8069
rwrist -1.93926
rhand -24.8713 -22.0051
rfingers 7.12502
rthumb 1.63591 -51.9785
lclavicle 5.93869e-015 8.94531e-015
lhumerus -45.6314 16.2716 62.8584
lradius 33.0862
lwrist 14.6941
lhand 6.55917 32.7553
lfingers 7.12502
lthumb 31.856 59.99
rfemur 4.89492 28.5471 35.2005
rtibia -12.122
rfoot -11.3817 -31.3103
rtoes -42.2897
lfemur -0.519736 -29.1783 -27.9666
ltibia -2.07289
lfoot -17.8507 30.4437
ltoes -57.3997
2
root 44.1221 16.0646 3.50552 163.736 -83.7423 -153.957
lowerback 7.64476 0.881443 1.88719
upperback -8.46051 1.43168 1.42173
thorax -13.5495 0.499449 0.251664
lowerneck -20.7519 -4.47164 -0.94581
upperneck 30.8577 -5.49469 -3.99013
head 13.8734 -3.29465 -2.46835
rclavicle -4.89507e-015 -2.98177e-015
rhumerus -48.3075 13.8388 -81.4635
rradius 36.063
rwrist -2.83914
rhand -24.926 -21.9779
rfingers 7.12502
rthumb 1.58302 -51.9518
lclavicle -4.89507e-015 -2.98177e-015
lhumerus -45.5632 16.2329 62.9218
lradius 33.6035
lwrist 15.1293
lhand 7.15514 32.9578
lfingers 7.12502
lthumb 32.4234 60.0779
rfemur 4.67748 28.5886 35.1133
rtibia -11.767
rfoot -13.3399 -30.926
rtoes -36.8544
lfemur -0.7235 -28.9376 -27.946
ltibia -1.76523
lfoot -17.77 29.9105
ltoes -57.1157
3
root 44.1278 16.0628 3.50741 163.655 -83.7195 -153.918
lowerback 7.71736 0.886689 1.91335
upperback -8.34513 1.4473 1.40725
thorax -13.4578 0.507344 0.215983
lowerneck -20.9871 -4.4538 -0.938661
upperneck 30.8328 -5.49109 -3.88076
head 13.9171 -3.27102 -2.43234
rclavicle 8.72168e-015 1.82882e-014
rhumerus -48.2525 13.9427 -81.5963
rradius 36.256
rwrist -3.64235
rhand -25.0513 -21.8696
rfingers 7.12502
rthumb 1.46205 -51.8444
lclavicle 8.72168e-015 1.82882e-014
lhumerus -45.5892 15.9675 63.0653
lradius 34.2534
lwrist 15.7483
lhand 7.57141 33.1887
lfingers 7.12502
lthumb 32.8194 60.2268
rfemur 4.58104 28.6032 35.0989
rtibia -11.566
rfoot -15.1936 -30.4756
rtoes -30.3829
lfemur -0.788299 -29.0065 -27.9496
ltibia -1.55802
lfoot -19.1546 28.9714
ltoes -55.8851
4
root 44.1334 16.0591 3.50947 163.788 -83.6961 -154.026
lowerback 7.79407 0.894947 1.90658
upperback -8.27715 1.46325 1.41232
thorax -13.4261 0.518083 0.220643
lowerneck -21.1047 -4.47231 -0.968958
upperneck 30.7309 -5.50692 -3.83654
head 13.9007 -3.27077 -2.41135
rclavicle -6.58474e-016 3.10104e-014
rhumerus -48.2897 14.1221 -81.7617
rradius 36.4565
rwrist -4.48958
rhand -25.1679 -21.7654
rfingers 7.12502
rthumb 1.34944 -51.7409
lclavicle -6.58474e-016 3.10104e-014
lhumerus -45.6521 15.2875 63.6176
lradius 34.8266
lwrist 15.6592
lhand 6.41754 33.0705
lfingers 7.12502
lthumb 31.7211 60.3319
rfemur 4.43875 28.6511 35.0425
rtibia -11.4134
rfoot -16.7876 -30.0134
rtoes -23.2949
lfemur -1.00258 -28.5622 -27.8211
ltibia -1.45386
lfoot -20.1484 27.8512
ltoes -54.3657
5
root 44.141 16.0579 3.51256 164.3 -83.6777 -154.476
lowerback 7.91175 0.888264 1.88474
upperback -8.26033 1.4554 1.40158
thorax -13.4805 0.516199 0.2209
lowerneck -21.1516 -4.41552 -1.13711
upperneck 30.5834 -5.46918 -3.47191
head 13.8681 -3.21694 -2.22625
rclavicle 6.96989e-015 1.43125e-014
rhumerus -48.4009 14.3372 -81.9702
rradius 36.6197
rwrist -5.32661
rhand -25.276 -21.7102
rfingers 7.12502
rthumb 1.24497 -51.6863
lclavicle 6.96989e-015 1.43125e-014
lhumerus -45.8684 14.4317 64.1331
lradius 35.4709
lwrist 15.848
lhand 5.72356 33.0672
lfingers 7.12502
lthumb 31.0599 60.4572
rfemur 4.2403 28.7004 34.923
rtibia -11.261
rfoot -18.2397 -29.5649
rtoes -15.3597
lfemur -1.22991 -28.3832 -27.7632
ltibia -1.34453
lfoot -20.422 27.5641
ltoes -53.7731
6
root 44.1497 16.0574 3.51663 164.68 -83.6722 -154.705
lowerback 7.93019 0.854755 1.94248
upperback -8.26325 1.41528 1.37067
thorax -13.4936 0.489532 0.162092
lowerneck -21.1486 -4.3823 -1.38585
upperneck 30.4089 -5.49016 -2.95057
head 13.8209 -3.17551 -1.97373
rclavicle -9.69075e-015 -1.45113e-014
rhumerus -48.4576 14.5631 -82.2153
rradius 36.7237
rwrist -6.11927
rhand -25.3494 -21.586
rfingers 7.12502
rthumb 1.17412 -51.5625
lclavicle -9.69075e-015 -1.45113e-014
lhumerus -46.1393 13.4091 64.5733
lradius 36.2766
lwrist 16.876
lhand 5.36505 33.6935
lfingers 7.12502
lthumb 30.7181 61.1483
rfemur 3.95423 28.747 34.7769
rtibia -11.144
rfoot -20.6137 -28.8055
rtoes 0.324699
lfemur -1.61841 -28.0611 -27.6659
ltibia -1.09673
lfoot -18.8699 28.4359
ltoes -54.7788
7
root 44.1577 16.0575 3.51929 165.403 -83.6888 -155.197
lowerback 7.86357 0.814817 2.0014
upperback -8.28585 1.35979 1.31452
thorax -13.4759 0.453486 0.0790311
lowerneck -20.9706 -4.42671 -1.48825
upperneck 29.9829 -5.58298 -2.68985
head 13.6128 -3.18584 -1.84601
rclavicle -1.37907e-015 -1.47101e-014
rhumerus -48.4801 14.7706 -82.4675
rradius 36.7869
rwrist -6.85543
rhand -25.417 -21.4701
rfingers 7.12502
rthumb 1.10883 -51.4469
lclavicle -1.37907e-015 -1.47101e-014
lhumerus -46.1873 12.609 64.9142
lradius 36.945
lwrist 18.3504
lhand 5.11938 35.0692
lfingers 7.12502
lthumb 30.4838 62.5678
rfemur 3.64697 28.8016 34.5909
rtibia -11.1271
rfoot -20.272 -28.933
rtoes -0.789732
lfemur -2.10897 -27.9872 -27.572
ltibia -0.798302
lfoot -17.3185 29.4898
ltoes -56.2004
8
root 44.1631 16.0594 3.52036 166.201 -83.7049 -155.756
lowerback 7.773 0.816871 1.946
upperback -8.32969 1.34858 1.30245
thorax -13.4715 0.451566 0.100415
lowerneck -20.6418 -4.50925 -1.46813
upperneck 29.429 -5.68752 -2.69369
head 13.3071 -3.22675 -1.83524
rclavicle 1.66482e-014 -9.54166e-015
rhumerus -48.5707 14.9851 -82.664
rradius 36.8484
rwrist -7.63495
rhand -25.4827 -21.2822
rfingers 7.12502
rthumb 1.04541 -51.2594
lclavicle 1.66482e-014 -9.54166e-015
lhumerus -46.2224 11.5611 65.7469
lradius 37.4482
lwrist 18.3676
lhand 3.20853 35.5315
lfingers 7.12502
lthumb 28.6598 63.3533
rfemur 3.39226 28.8662 34.437
rtibia -11.1871
rfoot -20.1011 -29.0732
rtoes -1.55443
lfemur -2.43724 -28.2701 -27.477
ltibia -0.820423
lfoot -16.8562 30.1536
ltoes -56.3886
9
root 44.1684 16.0627 3.52219 166.153 -83.73 -155.506
lowerback 7.71231 0.813746 1.97452
upperback -8.35966 1.34636 1.31585
thorax -13.4685 0.44754 0.100638
lowerneck -20.5218 -4.5543 -1.40806
upperneck 29.2297 -5.72998 -2.80828
head 13.1914 -3.25392 -1.88463
rclavicle 2.04375e-014 1.92821e-014
rhumerus -48.6867 15.2113 -82.8754
rradius 36.9009
rwrist -8.42839
rhand -25.551 -21.0614
rfingers 7.12502
rthumb 0.979399 -51.0389
lclavicle 2.04375e-014 1.92821e-014
lhumerus -46.3147 10.6651 66.4789
lradius 37.8914
lwrist 17.8361
lhand 2.85344 33.1544
lfingers 7.12502
lthumb 28.3205 61.033
rfemur 3.15371 28.885 34.3598
rtibia -11.2322
rfoot -20.0387 -29.1281
rtoes -1.61295
lfemur -2.7377 -28.217 -27.2792
ltibia -0.898241
lfoot -16.8753 29.9699
ltoes -56.2354
10
root 44.1733 16.0651 3.52602 166.2 -83.7715 -155.357
lowerback 7.66693 0.80605 2.01289
upperback -8.39041 1.33889 1.3198
thorax -13.4757 0.439439 0.0857732
lowerneck -20.5478 -4.59307 -1.4696
upperneck 29.2906 -5.78135 -2.76634
head 13.2256 -3.27756 -1.87032
rclavicle 5.35476e-015 2.98177e-015
rhumerus -48.8351 15.4171 -83.084
rradius 36.9538
rwrist -9.25083
rhand -25.6633 -20.8619
rfingers 7.12502
rthumb 0.8709 -50.8398
lclavicle 5.35476e-015 2.98177e-015
lhumerus -46.6213 9.73936 67.071
lradius 39.0076
lwrist 18.3965
lhand 1.92045 34.303
lfingers 7.12502
lthumb 27.4285 62.3262
rfemur 2.91539 28.8705 34.2446
rtibia -11.2772
rfoot -19.9748 -29.1367
rtoes -1.4271
lfemur -2.9841 -28.2292 -27.1426
ltibia -0.998141
lfoot -15.6757 30.8213
ltoes -56.3796
11
root 44.177 16.0666 3.53046 166.398 -83.8151 -155.366
lowerback 7.62892 0.798816 2.0407
upperback -8.41881 1.32983 1.31308
thorax -13.4847 0.431067 0.0652625
lowerneck -20.637 -4.62448 -1.53452
upperneck 29.442 -5.8301 -2.70518
head 13.312 -3.29788 -1.85342
rclavicle 3.64024e-015 -4.77083e-015
rhumerus -48.9597 15.569 -83.2748
rradius 36.9777
rwrist -10.1083
rhand -25.7393 -20.7372
rfingers 7.12502
rthumb 0.79753 -50.7155
lclavicle 3.64024e-015 -4.77083e-015
lhumerus -46.6804 8.99333 67.4314
lradius 39.5815
lwrist 19.9235
lhand 1.34734 36.1493
lfingers 7.12502
lthumb 26.8802 64.2582
rfemur 2.67416 28.8674 34.1055
rtibia -11.2848
rfoot -19.9597 -29.1364
rtoes -1.32222
lfemur -2.8557 -29.6199 -27.2309
ltibia -1.31564
lfoot -14.8159 33.3486
ltoes -56.5154
12
root 44.1807 16.0665 3.53555 166.48 -83.8253 -155.252
lowerback 7.58297 0.797975 2.1013
upperback -8.44653 1.33358 1.30633
thorax -13.487 0.425511 0.0240231
lowerneck -20.6101 -4.6142 -1.55258
upperneck 29.3691 -5.82713 -2.63601
head 13.2792 -3.28786 -1.81912
rclavicle 1.2424e-015 2.36554e-014
rhumerus -49.0306 15.7245 -83.4813
rradius 36.9412
rwrist -10.9722
rhand -25.7781 -20.5956
rfingers 7.12502
rthumb 0.76004 -50.5739
lclavicle 1.2424e-015 2.36554e-014
lhumerus -46.1198 9.56903 67.4196
lradius 38.5926
lwrist 17.9091
lhand 0.405152 34.0629
lfingers 7.12502
lthumb 25.9784 62.3074
rfemur 2.3651 28.8892 33.9555
rtibia -11.2063
rfoot -19.9587 -29.0919
rtoes -1.45825
lfemur -3.17748 -29.6306 -27.1157
ltibia -1.18314
lfoot -15.7246 32.8708
ltoes -55.883
13
root 44.1837 16.0667 3.54202 166.122 -83.8666 -154.787
lowerback 7.59996 0.791036 2.18838
upperback -8.45785 1.33782 1.31739
thorax -13.5097 0.419076 -0.0134222
lowerneck -20.6209 -4.60139 -1.60018
upperneck 29.4266 -5.8233 -2.54934
head 13.3109 -3.27958 -1.77964
rclavicle 5.57839e-015 3.43897e-014
rhumerus -49.1209 15.8921 -83.6492
rradius 36.9081
rwrist -11.7093
rhand -25.8234 -20.492
rfingers 7.12502
rthumb 0.716279 -50.4705
lclavicle 5.57839e-015 3.43897e-014
lhumerus -46.0747 9.28102 67.7084
lradius 38.7827
lwrist 17.6009
lhand -0.234567 33.9211
lfingers 7.12502
lthumb 25.3657 62.2539
rfemur 2.23126 28.8475 33.888
rtibia -11.2514
rfoot -20.0021 -28.9981
rtoes -1.58034
lfemur -3.201 -29.9535 -27.0534
ltibia -1.39184
lfoot -16.7863 32.6655
ltoes -55.0186
